<mxfile host="app.diagrams.net" modified="2023-04-23T12:00:09.339Z" agent="Mozilla/5.0 (Macintosh; Intel Mac OS X 10_15_7) AppleWebKit/537.36 (KHTML, like Gecko) Chrome/98.0.4758.139 Safari/537.36" etag="jnR17E2e9hhgKkoWIJ1_" version="21.2.1" type="github">
  <diagram name="第 1 页" id="IU7aOQ9VipTSvC4_DZ-x">
    <mxGraphModel dx="2849" dy="595" grid="1" gridSize="10" guides="1" tooltips="1" connect="1" arrows="1" fold="1" page="1" pageScale="1" pageWidth="827" pageHeight="1169" math="0" shadow="0">
      <root>
        <mxCell id="0" />
        <mxCell id="1" parent="0" />
        <mxCell id="u1e75DGR59H8cyzuvioA-18" style="edgeStyle=orthogonalEdgeStyle;rounded=0;orthogonalLoop=1;jettySize=auto;html=1;exitX=0.5;exitY=1;exitDx=0;exitDy=0;entryX=0.5;entryY=0;entryDx=0;entryDy=0;" edge="1" parent="1" source="u1e75DGR59H8cyzuvioA-2" target="u1e75DGR59H8cyzuvioA-14">
          <mxGeometry relative="1" as="geometry" />
        </mxCell>
        <mxCell id="u1e75DGR59H8cyzuvioA-2" value="PushConsumer" style="rounded=1;whiteSpace=wrap;html=1;labelBackgroundColor=none;fontColor=#000000;" vertex="1" parent="1">
          <mxGeometry x="160" y="80" width="100" height="40" as="geometry" />
        </mxCell>
        <mxCell id="u1e75DGR59H8cyzuvioA-22" style="edgeStyle=orthogonalEdgeStyle;rounded=0;orthogonalLoop=1;jettySize=auto;html=1;exitX=1;exitY=0.5;exitDx=0;exitDy=0;entryX=0;entryY=0.5;entryDx=0;entryDy=0;" edge="1" parent="1" source="u1e75DGR59H8cyzuvioA-7" target="u1e75DGR59H8cyzuvioA-21">
          <mxGeometry relative="1" as="geometry" />
        </mxCell>
        <mxCell id="u1e75DGR59H8cyzuvioA-7" value="&lt;div style=&quot;font-family: &amp;quot;JetBrains Mono&amp;quot;, monospace; font-size: 9.8pt;&quot;&gt;&lt;pre&gt;consumer.start();&lt;/pre&gt;&lt;/div&gt;" style="rounded=1;whiteSpace=wrap;html=1;labelBackgroundColor=none;fontColor=#000000;" vertex="1" parent="1">
          <mxGeometry x="135" y="280" width="150" height="40" as="geometry" />
        </mxCell>
        <mxCell id="u1e75DGR59H8cyzuvioA-17" style="edgeStyle=orthogonalEdgeStyle;rounded=0;orthogonalLoop=1;jettySize=auto;html=1;exitX=0;exitY=0.5;exitDx=0;exitDy=0;entryX=1;entryY=0.5;entryDx=0;entryDy=0;labelBackgroundColor=none;fontColor=#000000;dashed=1;" edge="1" parent="1" source="u1e75DGR59H8cyzuvioA-14" target="u1e75DGR59H8cyzuvioA-16">
          <mxGeometry relative="1" as="geometry">
            <mxPoint y="210" as="targetPoint" />
          </mxGeometry>
        </mxCell>
        <mxCell id="u1e75DGR59H8cyzuvioA-19" style="edgeStyle=orthogonalEdgeStyle;rounded=0;orthogonalLoop=1;jettySize=auto;html=1;exitX=0.5;exitY=1;exitDx=0;exitDy=0;" edge="1" parent="1" source="u1e75DGR59H8cyzuvioA-14" target="u1e75DGR59H8cyzuvioA-7">
          <mxGeometry relative="1" as="geometry" />
        </mxCell>
        <mxCell id="u1e75DGR59H8cyzuvioA-14" value="&lt;div style=&quot;font-family: &amp;quot;JetBrains Mono&amp;quot;, monospace; font-size: 9.8pt;&quot;&gt;&lt;pre&gt;consumer.registerMessageListener()&lt;/pre&gt;&lt;/div&gt;" style="rounded=1;whiteSpace=wrap;html=1;labelBackgroundColor=none;fontColor=#000000;" vertex="1" parent="1">
          <mxGeometry x="52.5" y="180" width="315" height="40" as="geometry" />
        </mxCell>
        <mxCell id="u1e75DGR59H8cyzuvioA-16" value="&lt;div style=&quot;font-family: &amp;quot;JetBrains Mono&amp;quot;, monospace; font-size: 9.8pt;&quot;&gt;&lt;pre&gt;new MessageListenerConcurrently() {&lt;br&gt;&lt;br&gt;    &lt;span style=&quot;&quot;&gt;@Override&lt;br&gt;&lt;/span&gt;&lt;span style=&quot;&quot;&gt;    &lt;/span&gt;&lt;span style=&quot;&quot;&gt;public &lt;/span&gt;ConsumeConcurrentlyStatus &lt;span style=&quot;&quot;&gt;consumeMessage&lt;/span&gt;(List&amp;lt;MessageExt&amp;gt; msgs&lt;span style=&quot;&quot;&gt;, &lt;/span&gt;ConsumeConcurrentlyContext context) {&lt;br&gt;        System.&lt;span style=&quot;font-style: italic;&quot;&gt;out&lt;/span&gt;.printf(&lt;span style=&quot;&quot;&gt;&quot;%s Receive New Messages: %s %n&quot;&lt;/span&gt;&lt;span style=&quot;&quot;&gt;, &lt;/span&gt;Thread.&lt;span style=&quot;font-style:italic;&quot;&gt;currentThread&lt;/span&gt;().getName()&lt;span style=&quot;&quot;&gt;, &lt;/span&gt;msgs)&lt;span style=&quot;&quot;&gt;;&lt;br&gt;&lt;/span&gt;&lt;span style=&quot;&quot;&gt;        return &lt;/span&gt;ConsumeConcurrentlyStatus.&lt;span style=&quot;font-style: italic;&quot;&gt;RECONSUME_LATER&lt;/span&gt;&lt;span style=&quot;&quot;&gt;;&lt;br&gt;&lt;/span&gt;&lt;span style=&quot;&quot;&gt;    &lt;/span&gt;}&lt;/pre&gt;&lt;/div&gt;" style="rounded=1;whiteSpace=wrap;html=1;align=left;labelBackgroundColor=none;fontColor=#000000;dashed=1;" vertex="1" parent="1">
          <mxGeometry x="-870" y="140" width="880" height="120" as="geometry" />
        </mxCell>
        <mxCell id="u1e75DGR59H8cyzuvioA-21" value="&lt;div style=&quot;font-family: &amp;quot;JetBrains Mono&amp;quot;, monospace; font-size: 9.8pt;&quot;&gt;&lt;pre&gt;DefaultMQPushConsumer.java&lt;/pre&gt;&lt;/div&gt;" style="rounded=1;whiteSpace=wrap;html=1;labelBackgroundColor=none;fontColor=#000000;" vertex="1" parent="1">
          <mxGeometry x="510" y="270" width="220" height="60" as="geometry" />
        </mxCell>
      </root>
    </mxGraphModel>
  </diagram>
</mxfile>
